<svg xmlns="http://www.w3.org/2000/svg" version="1.1" xmlns:xlink="http://www.w3.org/1999/xlink" xmlns:svgjs="http://svgjs.dev/svgjs" width="1000" height="1000"><g clip-path="url(#SvgjsClipPath1184)"><rect width="1000" height="1000" fill="#674636"></rect><g transform="matrix(2.8328611898016995,0,0,2.8328611898016995,5.684341886080802e-14,109.06515580736544)"><svg xmlns="http://www.w3.org/2000/svg" version="1.1" xmlns:xlink="http://www.w3.org/1999/xlink" xmlns:svgjs="http://svgjs.dev/svgjs" width="353" height="276"><svg width="353" height="276" viewBox="0 0 353 276" fill="none" xmlns="http://www.w3.org/2000/svg">
<ellipse cx="176.5" cy="138" rx="176.5" ry="138" fill="#674636"></ellipse>
<path d="M105.147 167H88.2271V106.7H105.147V129.11H116.127L128.007 106.7H147.177L130.167 136.58L146.817 167H127.377L116.307 145.58H105.147V167ZM167.408 167.9C152.378 167.9 143.918 159.08 143.918 144.32C143.918 129.02 152.558 119.84 167.948 119.84C182.888 119.84 190.358 128.57 190.358 140.9C190.358 143.42 189.908 146.21 189.638 147.74H159.668C159.938 152.69 161.468 153.86 167.678 153.86C171.728 153.86 173.078 153.05 173.078 150.98V150.8H189.818V151.88C189.818 161.24 181.178 167.9 167.408 167.9ZM167.048 133.16C161.828 133.16 159.938 134.78 159.668 138.56H174.248C174.158 135.59 172.628 133.16 167.048 133.16ZM211.131 167H194.301V106.7H211.131V167ZM231.755 167H213.485L227.255 143.96V143.15L213.485 120.74H232.385L240.395 134.87H241.205L248.675 120.74H266.945L253.175 143.69V144.5L266.945 167H247.955L240.035 153.23H239.225L231.755 167Z" fill="#F7EED3"></path>
</svg></svg></g></g><defs><clipPath id="SvgjsClipPath1184"><rect width="1000" height="1000" x="0" y="0" rx="250" ry="250"></rect></clipPath></defs></svg>